<?xml version="1.0" encoding="UTF-8" standalone="no"?> <svg xmlns="http://www.w3.org/2000/svg" viewBox="0 0 64 64"><title>farm-barn-real estate-farming and gardening-architecture and city-gardening-buildings</title><g id="Solid"><rect x="24" y="52" width="9" height="2"/><rect x="24" y="56" width="9" height="2"/><rect x="35" y="56" width="2" height="2"/><polygon points="21.96 39 12 39 12 60 18 60 18 44 21.96 44 21.96 39"/><rect x="24" y="48" width="9" height="2"/><polygon points="33 39 23.96 39 23.96 44 24 44 24 46 33 46 33 39"/><path d="M7.577,18.094,9,17.43V7H7V18.814l.066-.173A1,1,0,0,1,7.577,18.094Z"/><polygon points="22 18.618 18 20.618 18 27 22 27 22 18.618"/><rect x="35" y="52" width="2" height="2"/><polygon points="58.37 10 51.966 4.308 44.851 10 58.37 10"/><path d="M40.646,31,37.175,19.718,23,13.1,8.789,19.735,4.456,31ZM16,20a1,1,0,0,1,.553-.895l6-3c.012-.006.026,0,.039-.009A1,1,0,0,1,22.985,16c.016,0,.03,0,.046,0a1.007,1.007,0,0,1,.416.1l6,3A1,1,0,0,1,30,20v8a1,1,0,0,1-1,1H17a1,1,0,0,1-1-1Z"/><rect x="20" y="46" width="1.96" height="14"/><polygon points="28 20.618 24 18.618 24 27 28 27 28 20.618"/><rect x="43" y="48" width="13" height="2"/><rect x="35" y="48" width="2" height="2"/><polygon points="47 41.586 50.586 38 47 34.414 47 41.586"/><polygon points="57 31 47 31 47 31.586 52 36.586 57 31.586 57 31"/><polygon points="57 34.414 53.414 38 57 41.586 57 34.414"/><polygon points="58 52 58 54 58 60 60 60 60 46 58 46 58 52"/><path d="M43,29H56V17h2V29h2V12H43ZM56,14h2v2H56Z"/><polygon points="47 46 56 46 56 44 56.586 44 52 39.414 47 44.414 47 46"/><path d="M10,38a1,1,0,0,1,1-1H34a1,1,0,0,1,1,1v8h2V44h4V33H4V60h6Z"/><rect x="43" y="52" width="13" height="2"/><polygon points="39 54 39 60 41 60 41 54 41 52 41 46 39 46 39 52 39 54"/><path d="M42.956,31.706a1,1,0,0,1,.007.11A.953.953,0,0,1,43,32V46h2V31H42.738Z"/><rect x="43" y="56" width="13" height="2"/></g></svg>